<svg width="32" height="32" viewBox="0 0 32 32" fill="none" xmlns="http://www.w3.org/2000/svg">
<mask id="mask0_18_7" style="mask-type:alpha" maskUnits="userSpaceOnUse" x="0" y="0" width="32" height="32">
<rect width="32" height="32" fill="#D9D9D9"/>
</mask>
<g mask="url(#mask0_18_7)">
<path d="M7.99967 29.3332C7.26634 29.3332 6.63856 29.0721 6.11634 28.5499C5.59412 28.0276 5.33301 27.3999 5.33301 26.6665V10.6665C5.33301 9.93318 5.59412 9.3054 6.11634 8.78318C6.63856 8.26095 7.26634 7.99984 7.99967 7.99984H10.6663C10.6663 6.53317 11.1886 5.27762 12.233 4.23317C13.2774 3.18873 14.533 2.6665 15.9997 2.6665C17.4663 2.6665 18.7219 3.18873 19.7663 4.23317C20.8108 5.27762 21.333 6.53317 21.333 7.99984H23.9997C24.733 7.99984 25.3608 8.26095 25.883 8.78318C26.4052 9.3054 26.6663 9.93318 26.6663 10.6665V26.6665C26.6663 27.3999 26.4052 28.0276 25.883 28.5499C25.3608 29.0721 24.733 29.3332 23.9997 29.3332H7.99967ZM7.99967 26.6665H23.9997V10.6665H21.333V13.3332C21.333 13.711 21.2052 14.0276 20.9497 14.2832C20.6941 14.5387 20.3774 14.6665 19.9997 14.6665C19.6219 14.6665 19.3052 14.5387 19.0497 14.2832C18.7941 14.0276 18.6663 13.711 18.6663 13.3332V10.6665H13.333V13.3332C13.333 13.711 13.2052 14.0276 12.9497 14.2832C12.6941 14.5387 12.3774 14.6665 11.9997 14.6665C11.6219 14.6665 11.3052 14.5387 11.0497 14.2832C10.7941 14.0276 10.6663 13.711 10.6663 13.3332V10.6665H7.99967V26.6665ZM13.333 7.99984H18.6663C18.6663 7.26651 18.4052 6.63873 17.883 6.11651C17.3608 5.59428 16.733 5.33317 15.9997 5.33317C15.2663 5.33317 14.6386 5.59428 14.1163 6.11651C13.5941 6.63873 13.333 7.26651 13.333 7.99984Z"  fill="#000"/>
</g>
</svg>
